<svg width="24" height="24" viewBox="0 0 24 24" fill="none" xmlns="http://www.w3.org/2000/svg">
<path d="M3.75 10.5C3.55109 10.5 3.36032 10.421 3.21967 10.2803C3.07902 10.1397 3 9.94891 3 9.74999V3.7515C3 3.55258 3.07902 3.36182 3.21967 3.22117C3.36032 3.08051 3.55109 3.0015 3.75 3.0015H9.75C9.94891 3.0015 10.1397 3.08051 10.2803 3.22117C10.421 3.36182 10.5 3.55258 10.5 3.7515V9.74999C10.5 9.94891 10.421 10.1397 10.2803 10.2803C10.1397 10.421 9.94891 10.5 9.75 10.5H3.75ZM14.25 10.5C14.0511 10.5 13.8603 10.421 13.7197 10.2803C13.579 10.1397 13.5 9.94891 13.5 9.74999V3.7515C13.5 3.55258 13.579 3.36182 13.7197 3.22117C13.8603 3.08051 14.0511 3.0015 14.25 3.0015H20.2485C20.4474 3.0015 20.6382 3.08051 20.7788 3.22117C20.9195 3.36182 20.9985 3.55258 20.9985 3.7515V9.74999C20.9985 9.94891 20.9195 10.1397 20.7788 10.2803C20.6382 10.421 20.4474 10.5 20.2485 10.5H14.25ZM3.75 21C3.55109 21 3.36032 20.921 3.21967 20.7803C3.07902 20.6397 3 20.4489 3 20.25V14.25C3 14.0511 3.07902 13.8603 3.21967 13.7197C3.36032 13.579 3.55109 13.5 3.75 13.5H9.75C9.94891 13.5 10.1397 13.579 10.2803 13.7197C10.421 13.8603 10.5 14.0511 10.5 14.25V20.25C10.5 20.4489 10.421 20.6397 10.2803 20.7803C10.1397 20.921 9.94891 21 9.75 21H3.75ZM14.25 21C14.0511 21 13.8603 20.921 13.7197 20.7803C13.579 20.6397 13.5 20.4489 13.5 20.25V14.25C13.5 14.0511 13.579 13.8603 13.7197 13.7197C13.8603 13.579 14.0511 13.5 14.25 13.5H20.2485C20.4474 13.5 20.6382 13.579 20.7788 13.7197C20.9195 13.8603 20.9985 14.0511 20.9985 14.25V20.25C20.9985 20.4489 20.9195 20.6397 20.7788 20.7803C20.6382 20.921 20.4474 21 20.2485 21H14.25Z" fill="#F7F7F7"/>
</svg>
